<svg xmlns="http://www.w3.org/2000/svg" viewBox="0.00 0.00 100.00 100.00">
  <path
    d="M73.809 41.518a257.17 257.17 0 0 1-10.709-.339l14.55 20.072c2.158 1.202 9.937 6.183 16.074 8.12l-.29 1.276c-.055 0-12.241-1.96-18.143-7.19L59.126 41.271l-.58-.437c-1.752-.165-3.415-.354-4.801-.567l13.008 17.831-4.801 14.197c.619 6.195 10.675 25.837 10.69 25.855l-1.02.812c-8.06-6.695-12.967-26.874-12.967-26.874l4.479-13.422-10.143-13.871c.3 2.414.465 5.237.465 8.335-.266 8.532-.675 15.223-3.452 15.918-2.805-.695-3.207-7.367-3.47-15.918 0-3.062.183-5.851.458-8.262L36.909 58.663l4.499 13.778c-.854 2.277-6.422 21.095-13.025 26.539l-.989-.827c0-.021 10.077-19.663 10.736-25.59l-4.846-14.447 13.013-17.811c-1.403.156-3.052.363-4.834.528l-.567.437-16.23 22.29c-5.804 5.127-18 7.068-18.066 7.104l-.317-1.29c6.158-1.92 13.88-6.87 16.102-8.121l14.533-20.072c-3.37.184-7.032.299-10.719.299C13.404 41.288.531 40.443 0 34.642c0-.583.141-1.156.434-1.703 1.538-3.085 5.811-3.897 11.121-3.952 9.204 0 21.918 2.896 30.158 5.012l2.606-2.451c-3.016-.937-7.685-2.878-10.864-6.238l-.373-.601-1.531-12.32-8.558-10.466.971-.903 10.602 9.912 1.502 12.348c2.673 2.804 7.349 4.581 9.955 5.365.348-.784.83-1.504 1.52-2.014.037-.171.073-.335.092-.473l-.037.019c-1.531 0-3.484-.693-3.479-2.859a3.11 3.11 0 0 1 0-.336c.329-2.497 2.777-3.906 4.346-4.663l.793-14.509 1.309-.018 1.422 14.752c1.521.849 3.596 2.222 3.833 4.456 0 .11.028.226.028.317 0 2.148-1.969 2.859-3.471 2.859h-.019c.018.137.063.308.063.455.711.528 1.193 1.249 1.514 2.039 2.64-.809 7.331-2.53 9.843-5.035l1.913-13.077L76.082 1.02l.939.903-8.417 10.175-1.837 12.967-.192.229c-3.18 3.394-7.861 5.279-10.846 6.253l2.566 2.451c8.233-2.167 20.976-5.012 30.174-5.03 5.31.073 9.589.886 11.136 3.974.274.544.403 1.111.394 1.667-.513 5.853-13.379 6.698-26.19 6.909z"
  />
</svg>
