<svg xmlns="http://www.w3.org/2000/svg" viewBox="8.02 8.02 82.96 82.96">
  <path
    d="M12.072 77.152V61.124l-4.05-11.127v27.155h4.05zM52.087 62.141v15.011h3.595l1.937-15.011h-5.532z"
  />
  <path
    d="M73.294 46.995V36.932h2.7v5.087h11.929a3.055 3.055 0 0 0 3.056-3.055v-1.97l-5.871-5.872v-2.001l-3.233-3.232 4.328-1.679v-2.362h-8.638a2.78 2.78 0 0 0-2.781 2.781l-9.59 4.774h-46.37c-5.927.016-10.714 4.76-10.799 10.643-.002 1.386.209 2.633.653 3.854L20.78 77.152h4.31l-3.583-9.846 4.925-13.531a8.104 8.104 0 0 0 .491-2.772h2.699v6.993a10.753 10.753 0 0 0 5.4 1.443h25.296v17.713h3.595l3.639-19.67a12.434 12.434 0 0 0 5.742-10.487z"
  />
</svg>
