<svg xmlns="http://www.w3.org/2000/svg" viewBox="11 12 74 74">
  <path
    d="M74 14.5c-19.078 0-27.629 16.223-34.498 29.26C34.202 53.815 29.623 62.5 22 62.5c-7.22 0-11 5.031-11 10s3.78 10 11 10c18.39 0 25.66-14.713 32.072-27.695C59.455 43.91 64.103 34.5 74 34.5c7.22 0 11-5.031 11-10s-3.78-10-11-10zM41 49.457a12.143 12.143 0 002.648 3.236 11.1 11.1 0 005.73 2.574 101.677 101.677 0 01-5.406 9.78c-4.96-1.203-7.275-5.164-7.009-8.743 1.402-2.113 2.73-4.429 4.037-6.847zM15 72.5c0-2.986 2.164-6 7-6a13.816 13.816 0 002.503-.25 13.566 13.566 0 00-.013 4.6 14.374 14.374 0 003.335 6.988A25.263 25.263 0 0122 78.5c-4.836 0-7-3.014-7-6zm17.038 3.886a10.129 10.129 0 01-3.604-6.208 7.979 7.979 0 011.059-5.917 20.348 20.348 0 004.135-3.587 12.735 12.735 0 007.897 7.842 26.163 26.163 0 01-9.487 7.87zm19.328-25.128a6.392 6.392 0 01-5.143-1.627 6.51 6.51 0 01-2.616-5.082c1.626-3.078 3.279-6.156 5.068-9.068a12.25 12.25 0 002.833 4.716 10.024 10.024 0 004.462 2.547c-1.652 2.676-3.148 5.585-4.604 8.514zm7.061-12.119a6.288 6.288 0 01-4.091-1.77 9.443 9.443 0 01-2.446-6.655 34.352 34.352 0 017.91-7.883 14.115 14.115 0 005.407 10.033 23.8 23.8 0 00-6.78 6.275zM74 30.5a17.906 17.906 0 00-4.408.535c-4.854-2.763-6.35-7.232-5.67-10.502A24.887 24.887 0 0174 18.5c4.836 0 7 3.014 7 6s-2.164 6-7 6z"
  />
</svg>
