<svg xmlns="http://www.w3.org/2000/svg" viewBox="8.00 8.00 84.00 84.00">
  <path
    d="M79.419 42.823L84.242 38H89a3 3 0 1 0 0-6h-6c-.795 0-1.559.316-2.121.879l-6.109 6.109a43.928 43.928 0 0 0-5.688-3.488l7.088-7.429c.533-.558.83-1.299.83-2.071v-7.758l5.121-5.121c1.172-1.172 1.172-3.07 0-4.242s-3.07-1.172-4.242 0l-6 6A2.998 2.998 0 0 0 71 17v7.799l-7.701 8.069a18.45 18.45 0 0 0-2.164-3.758C63.536 27.526 65 25.413 65 23c0-3.733-3.436-6.776-8.588-8.169l1.709-1.709c1.172-1.172 1.172-3.07 0-4.242s-3.07-1.172-4.242 0L50 12.758l-3.879-3.879c-1.172-1.172-3.07-1.172-4.242 0s-1.172 3.07 0 4.242l1.709 1.709C38.436 16.224 35 19.267 35 23c0 2.413 1.464 4.526 3.865 6.11a18.45 18.45 0 0 0-2.164 3.758L29 24.799V17c0-.795-.316-1.559-.879-2.121l-6-6c-1.172-1.172-3.07-1.172-4.242 0s-1.172 3.07 0 4.242L23 18.242V26a3 3 0 0 0 .829 2.071l7.088 7.429a44.064 44.064 0 0 0-5.688 3.488l-6.109-6.109A2.994 2.994 0 0 0 17 32h-6a3 3 0 1 0 0 6h4.758l4.823 4.823c-6.554 6.164-13.653 16.83-12.404 25.73 1.384 9.848 13.391 15.93 27.227 7.357C37.253 89.82 45.211 92 50 92s12.746-2.18 14.595-16.088c13.758 8.525 25.836 2.561 27.226-7.36 1.253-8.912-5.868-19.583-12.402-25.729zm-65.3 24.896c-1.006-7.167 7.519-21.424 20.887-27.548-.19 6.716 2.804 12.667 9.255 14.888-.961 2.589-2.148 5.499-3.517 7.537-9.572 14.225-25.361 14.124-26.625 5.123zm71.761 0c-1.267 9.02-17.076 9.075-26.624-5.123-1.369-2.038-2.556-4.948-3.517-7.537 6.285-2.164 9.452-7.929 9.255-14.888 13.449 6.161 21.883 20.443 20.886 27.548z"
  />
</svg>
