<svg xmlns="http://www.w3.org/2000/svg" viewBox="5 5 90 90">
  <path
    d="M44.12 8.534a2.906 2.906 0 00-2.078 4.966l1.221 1.249C38.537 16.93 35.3 21.06 35.3 24.37c0 1.845 1.013 3.156 2.72 4.074-1.983-.365-3.868-.93-5.638-1.756-2.183-1.018-4.22-2.416-6.134-4.338a26.43 26.43 0 01-2.77-3.297 2.906 2.906 0 00-2.494-1.248 2.906 2.906 0 00-2.235 4.626 32.312 32.312 0 003.383 4.02c2.38 2.39 5.01 4.205 7.796 5.504 1.174.547 2.377.986 3.594 1.36-4.603.485-9.42 3.126-14.427 8.134-5.086 5.086-9.477 11.78-11.978 18.125-1.251 3.172-2.036 6.259-2.111 9.112-.075 2.854.602 5.617 2.56 7.575 1.958 1.958 4.726 2.637 7.58 2.563 2.853-.075 5.937-.863 9.11-2.114 3.886-1.532 7.9-3.776 11.6-6.452-.034.725-.061 1.448-.061 2.159 0 13.685 6.037 19.048 14.205 19.048 8.169 0 14.205-5.363 14.205-19.048 0-.71-.025-1.434-.06-2.16 3.7 2.676 7.716 4.92 11.602 6.453 3.173 1.25 6.254 2.039 9.108 2.114 2.854.075 5.621-.605 7.58-2.563 1.957-1.958 2.634-4.721 2.56-7.575-.075-2.853-.863-5.94-2.114-9.112-2.501-6.345-6.89-13.04-11.976-18.125-5.008-5.01-9.824-7.65-14.427-8.135a27.7 27.7 0 003.594-1.36c2.785-1.298 5.415-3.112 7.796-5.503a32.323 32.323 0 003.383-4.02 2.906 2.906 0 00-2.32-4.626 2.906 2.906 0 00-2.407 1.248 26.453 26.453 0 01-2.772 3.297c-1.914 1.922-3.953 3.32-6.137 4.338-1.769.825-3.653 1.389-5.634 1.753 1.706-.917 2.719-2.226 2.719-4.07 0-3.31-3.235-7.441-7.96-9.623l1.22-1.249a2.906 2.906 0 00-2.17-4.963 2.906 2.906 0 00-1.987.9l-3.715 3.801h-.178l-3.715-3.801a2.906 2.906 0 00-2.074-.903zm-8.807 29.213c.153 0 .299.027.449.038-.49 1.806-.767 3.632-.767 5.38 0 6.737 3.751 10.327 9.38 11.643-1.099 2.062-2.769 4.307-5.19 6.729-4.59 4.59-10.929 8.739-16.587 10.97-2.829 1.115-5.489 1.743-7.571 1.798-2.083.054-3.45-.423-4.266-1.239-.815-.815-1.29-2.18-1.236-4.262.056-2.083.681-4.74 1.796-7.57 2.231-5.658 6.379-11.998 10.97-16.589 4.603-4.603 8.595-6.553 11.832-6.855.404-.037.801-.052 1.19-.043zm29.377 0c.389-.013.783 0 1.188.043 3.236.302 7.228 2.252 11.832 6.855 4.59 4.591 8.739 10.931 10.97 16.59 1.114 2.828 1.743 5.486 1.798 7.569.055 2.083-.423 3.447-1.239 4.262-.816.816-2.182 1.293-4.265 1.239-2.083-.054-4.74-.683-7.57-1.799-5.657-2.23-11.997-6.378-16.588-10.97-2.422-2.42-4.092-4.666-5.191-6.728 5.63-1.315 9.38-4.905 9.38-11.643 0-1.748-.276-3.574-.767-5.38.151-.013.299-.035.452-.038z"
  />
</svg>
