<svg xmlns="http://www.w3.org/2000/svg" viewBox="24.63 24.60 50.79 50.79">
  <path
    d="M72.083 43.667c.959-.084 1.792-.25 3.334-.625-.167-.834-1.167-2.25-2.584-3.167-.041-4.083-1.833-3.708-.791-6.292 1.166-2.916-.042-6-1.459-6.416-1.291-.375-.75 1.416-1.5 3.083-.291.75-1 .792-1.125-.208C67.583 27.583 66.083 25 65 25c-1.542 0-.625 2.625-.958 5.208-.042.667-.584.792-.834.209-.833-1.792-3.625-4.792-4.75-4.375-1.416.541.292 3.125.917 5.583.208.792-.208.833-.75.375-1.208-1.167-4.333-2.417-5.167-1.75-1.666 1.5 4.292 6.083 4.292 8.292 0 10-7.125 8.041-17.167 8.041-11 0-15.958 8.542-15.958 17 0 1.292.167 2.625.417 3.959 1.791-1.75 3.208-3.084 4.416-4 0 2.208.5 4.416 1.334 6.583 3.833-3.917 8.458-5.25 13.416-4.667l-8.25 3.667C41.458 73.958 46.292 75 49.75 75c13.833 0 20.083-8.125 20.083-17.417 0-3-.041-4.833-.041-6.375.416.375.875.542 1.458.542 1.333 0 2.5-1.125 2.5-2.5 0-1.667-2-3.417-1.667-5.583zm-4.25-1.709c-.958 0-1.791-.916-1.791-1.833 0-1 .833-1.792 1.791-1.792 1 0 1.834.792 1.834 1.792 0 .917-.834 1.833-1.834 1.833zm0 0"
  />
</svg>
