<svg xmlns="http://www.w3.org/2000/svg" viewBox="3.15 3.10 121.70 121.70">
  <path
    d="M55.2 87c-4-6.8-11.6-8.2-12.9-8.4-.3.8-3.4 8.2.8 15.4 3.7 6.4 10.3 7.8 11.4 8 1-2.6 1.9-5.2 2.9-7.8-.1-1.7-.6-4.4-2.2-7.2zM72.8 87c4-6.8 11.6-8.2 12.9-8.4.3.8 3.4 8.2-.8 15.4-3.7 6.4-10.3 7.8-11.4 8-1-2.6-1.9-5.2-2.9-7.8.1-1.7.6-4.4 2.2-7.2zM55.2 61.8c-4-6.8-11.6-8.2-12.9-8.4-.3.8-3.4 8.2.8 15.4 3.7 6.4 10.3 7.8 11.4 8 1-2.6 1.9-5.2 2.9-7.8-.1-1.8-.6-4.5-2.2-7.2zM72.8 61.8c4-6.8 11.6-8.2 12.9-8.4.3.8 3.4 8.2-.8 15.4-3.7 6.4-10.3 7.8-11.4 8-1-2.6-1.9-5.2-2.9-7.8.1-1.8.6-4.5 2.2-7.2zM55.2 36.6c-4-6.8-11.6-8.2-12.9-8.4-.3.8-3.4 8.2.8 15.4 3.7 6.4 10.3 7.8 11.4 8 1-2.6 1.9-5.2 2.9-7.8-.1-1.8-.6-4.5-2.2-7.2zM72.8 36.6c4-6.8 11.6-8.2 12.9-8.4.3.8 3.4 8.2-.8 15.4-3.7 6.4-10.3 7.8-11.4 8-1-2.6-1.9-5.2-2.9-7.8.1-1.8.6-4.5 2.2-7.2zM71.3 16.9c0 8.7-6.8 13.4-7.3 13.8-.5-.4-7.3-5.1-7.3-13.8S63.5 3.5 64 3.1c.5.4 7.3 5.1 7.3 13.8zM61.5 33.9h5v90.9h-5z"
  />
</svg>
