<svg xmlns="http://www.w3.org/2000/svg" viewBox="0.53 0.53 11.64 11.64">
  <path
    d="M2.84.53a3.246 3.246 0 0 0-2.014.705.188.188 0 0 0-.07.156 1.182 1.182 0 0 0 .094.406.376.376 0 0 1-.025.347 1.943 1.943 0 0 0-.23 1.504.752.752 0 0 0 .732.565 2.335 2.335 0 0 0 1.57-.616.094.094 0 0 1 .127.139 2.523 2.523 0 0 1-.514.365A6.413 6.413 0 0 0 3.834 5.68a19.234 19.234 0 0 1 .59-1.463.094.094 0 0 1 .17.078 19.046 19.046 0 0 0-1.67 7.034 1.522 1.522 0 0 0-.877.815.019.019 0 0 0 .017.027h1.278a.175.175 0 0 0 .169-.133 38.7 38.7 0 0 1 2.28-6.557.094.094 0 0 1 .172.077 38.511 38.511 0 0 0-.496 1.147 6.413 6.413 0 0 0 2.247.524 2.269 2.269 0 0 1 1.62-1.946.094.094 0 1 1 .054.18 2.08 2.08 0 0 0-1.277 2.929 3.586 3.586 0 0 0 1.185 1.475.745.745 0 0 1-.631 1.322.92.92 0 0 0-1.159.888v.094h3.152a.188.188 0 0 0 .187-.211 17.067 17.067 0 0 0-.593-2.808.376.376 0 0 1 .099-.379 8.64 8.64 0 0 0 1.525-1.982 1.378 1.378 0 0 0-.362-2.016.376.376 0 0 1-.168-.237 3.256 3.256 0 0 0-1.892-2.28 10.378 10.378 0 0 0-4.78-1.166A3.246 3.246 0 0 0 2.84.53zm.553.608a.593.593 0 0 1 .344 1.072.094.094 0 0 1-.111-.152.405.405 0 1 0-.625-.45.094.094 0 0 1-.179-.058.593.593 0 0 1 .571-.412zm-1.809.69a.232.232 0 0 1 .01 0 .232.232 0 0 1 .227.242.232.232 0 1 1-.463 0 .232.232 0 0 1 .227-.243z"
  />
  <path
    d="M1.874 12.068a.207.207 0 0 0-.017.103H.895a.019.019 0 0 1-.018-.023 2.271 2.271 0 0 1 .84-1.316.376.376 0 0 0 .149-.304 20.046 20.046 0 0 1 .793-5.857A6.601 6.601 0 0 0 3.767 5.87 19.234 19.234 0 0 0 2.74 11.2a1.71 1.71 0 0 0-.867.868zM6.74 11.115a1.538 1.538 0 0 0-1.506 1.03.019.019 0 0 0 .017.026h2.066v-.094a1.108 1.108 0 0 1 .674-1.019l.649-1.52a3.774 3.774 0 0 1-.7-1.067 2.269 2.269 0 0 1-.238-1.054 6.601 6.601 0 0 1-.89-.104 1.297 1.297 0 0 0-.357 1.608l.746 1.473a.497.497 0 0 1-.46.72z"
  />
</svg>
